<svg width="377" height="377" viewBox="0 0 377 377" fill="none" xmlns="http://www.w3.org/2000/svg">
<g clip-path="url(#clip0_284_90)">
<path fill-rule="evenodd" clip-rule="evenodd" d="M309.733 68C308.733 61 306.603 56.5003 300.522 51.1619C294.441 45.8236 285.528 40.9731 274.293 36.8873C263.057 32.8015 249.718 29.5605 235.037 27.3493C220.357 25.1381 204.623 24 188.733 24C172.843 24 157.108 25.1381 142.428 27.3493C127.747 29.5605 114.409 32.8015 103.173 36.8873C91.9368 40.9731 83.024 45.8236 76.9432 51.1619C70.8623 56.5003 68.7326 61 67.7326 68L63.7326 95L63.7442 95.032L50.2145 186.734C49.8954 188.897 49.9331 191.097 50.3261 193.248L64.7348 272.095C66.4711 281.597 74.75 288.5 84.409 288.5H134.233H168.733H188.733H208.733H243.233H293.056C302.715 288.5 310.994 281.597 312.73 272.095L327.139 193.248C327.532 191.097 327.57 188.897 327.251 186.734L313.721 95.032L313.733 95L309.733 68Z" fill="#dd0033"/>
<circle cx="94.2324" cy="239.5" r="5.5" fill="white"/>
<circle cx="115.232" cy="239.5" r="8.5" fill="white"/>
<circle cx="5.5" cy="5.5" r="5.5" transform="matrix(-1 0 0 1 288.732 234)" fill="white"/>
<circle cx="8.5" cy="8.5" r="8.5" transform="matrix(-1 0 0 1 270.732 231)" fill="white"/>
<circle cx="91.2324" cy="79.5" r="6.5" fill="white"/>
<circle cx="106.232" cy="70.5" r="6.5" fill="white"/>
<circle cx="6.5" cy="6.5" r="6.5" transform="matrix(-1 0 0 1 293.732 73)" fill="white"/>
<path d="M135.232 176.5V98C135.232 94.6863 132.546 92 129.232 92H88.4038C85.432 92 82.9079 94.1755 82.4694 97.1148L70.7595 175.615C70.2186 179.241 73.0276 182.5 76.6938 182.5H129.232C132.546 182.5 135.232 179.814 135.232 176.5Z" fill="white"/>
<path d="M242.732 176.5V98C242.732 94.6863 245.419 92 248.732 92H289.561C292.533 92 295.057 94.1755 295.495 97.1148L307.205 175.615C307.746 179.241 304.937 182.5 301.271 182.5H248.732C245.419 182.5 242.732 179.814 242.732 176.5Z" fill="white"/>
<rect x="154.732" y="84" width="69" height="189" rx="4" fill="white"/>
<rect x="163.301" y="92" width="52" height="90" rx="6" fill="#dd0033"/>
<rect x="134.732" y="45" width="109" height="22" rx="11" fill="white"/>
<path d="M137.5 273L68 342.5" stroke="#dd0033" stroke-width="19"/>
<path d="M303.002 333L76.0004 333.002" stroke="#dd0033" stroke-width="10"/>
<path d="M239.5 273L309 342.5" stroke="#dd0033" stroke-width="19"/>
<path d="M137.5 273L68 342.5" stroke="#dd0033" stroke-width="19" stroke-linecap="round"/>
<path d="M303.002 333L76.0004 333.002" stroke="#dd0033" stroke-width="10" stroke-linecap="round"/>
<path d="M239.5 273L309 342.5" stroke="#dd0033" stroke-width="19" stroke-linecap="round"/>
<path d="M275 308.144L101.985 308.16" stroke="#dd0033" stroke-width="10" stroke-linecap="round"/>
</g>
<defs>
<clipPath id="clip0_284_90">
<rect width="377" height="377" fill="white"/>
</clipPath>
</defs>
</svg>

