<svg width="377" height="377" viewBox="0 0 377 377" fill="none" xmlns="http://www.w3.org/2000/svg">
<path d="M146.655 292.345L89 350" stroke="#dd0033" stroke-width="17" stroke-linecap="round"/>
<path d="M231.272 292.345L288.928 350" stroke="#dd0033" stroke-width="17" stroke-linecap="round"/>
<path fill-rule="evenodd" clip-rule="evenodd" d="M142.09 57.1621C130.422 59.3227 114.746 64.4139 106.126 67.3712C102.045 68.7713 98.7353 71.7801 96.8635 75.6676L96.1093 77.2339C94.979 79.5816 94.4174 82.1625 94.4702 84.7676L98.6606 282.081C98.8281 290.348 105.057 297.229 113.266 298.218C113.266 298.218 147.069 307.171 187.718 307.278C228.367 307.384 263.828 298.218 263.828 298.218C272.037 297.229 278.265 290.348 278.433 282.081L282.623 84.7676C282.676 82.1625 282.114 79.5816 280.984 77.2339L280.23 75.6676C278.358 71.7801 275.049 68.7713 270.967 67.3712C262.347 64.4139 246.671 59.3227 235.003 57.1621C216.604 53.7552 190.69 53.8335 188.672 53.845C188.579 53.8455 188.514 53.8455 188.421 53.845C186.403 53.8335 160.49 53.7552 142.09 57.1621Z" fill="#dd0033"/>
<path fill-rule="evenodd" clip-rule="evenodd" d="M150.677 74.5823C137.701 75.5648 126.428 77.0451 120.216 77.9461C117.333 78.3642 115.305 81.0912 115.568 84.1325L126.108 206.179C126.367 209.171 128.757 211.462 131.62 211.462H190.207H248.793C251.656 211.462 254.046 209.171 254.305 206.179L264.845 84.1325C265.108 81.0912 263.08 78.3642 260.197 77.9461C253.985 77.0451 242.712 75.5648 229.736 74.5823C210.441 73.1215 205.676 72.9239 190.24 72.9229C174.777 72.9218 169.972 73.1215 150.677 74.5823Z" fill="white"/>
<mask id="mask0_284_224" style="mask-type:alpha" maskUnits="userSpaceOnUse" x="115" y="72" width="150" height="140">
<path fill-rule="evenodd" clip-rule="evenodd" d="M150.677 74.5833C137.701 75.5657 126.428 77.0461 120.216 77.9471C117.333 78.3652 115.305 81.0922 115.568 84.1335L126.108 206.18C126.367 209.172 128.757 211.463 131.62 211.463H190.207H248.793C251.656 211.463 254.046 209.172 254.305 206.18L264.845 84.1335C265.108 81.0922 263.08 78.3652 260.197 77.9471C253.985 77.0461 242.712 75.5657 229.736 74.5833C210.441 73.1225 205.676 72.9249 190.24 72.9238C174.777 72.9227 169.972 73.1225 150.677 74.5833Z" fill="white"/>
</mask>
<g mask="url(#mask0_284_224)">
<path d="M109 73C109 73 159.179 59.9964 188.5 60C217.497 60.0036 271 71.5 271 71.5L264.869 96.9811C264.869 96.9811 225.052 95.3219 190.622 95.3219C156.193 95.3219 115.546 96.9811 115.546 96.9811L109 73Z" fill="#dd0033"/>
</g>
<path d="M123.84 81.7216C123.84 79.5404 125.586 77.7618 127.766 77.7254C138.535 77.5458 169.13 77.0687 190.157 77.0713C210.926 77.0738 241.132 77.5465 251.818 77.7252C253.999 77.7617 255.742 79.5403 255.742 81.7214V89.4953C255.742 91.7688 253.869 93.5875 251.597 93.5037C241.423 93.1286 214.292 92.22 190.157 92.22C165.957 92.22 138.278 93.1336 127.981 93.5068C125.71 93.5891 123.84 91.7709 123.84 89.4988V81.7216Z" fill="white"/>
<circle cx="129.231" cy="248.377" r="10.3697" fill="white"/>
<circle cx="250.348" cy="248.377" r="10.3697" fill="white"/>
<circle cx="149.557" cy="267.872" r="9.12531" fill="white"/>
<circle cx="230.026" cy="267.872" r="9.12531" fill="white"/>
<path d="M148.542 19.0919L148.548 19.1158C148.576 19.2196 148.729 19.1995 148.729 19.0921C148.729 19.0413 148.77 19.0002 148.821 19.0002L228.241 19.0001L228.349 19.0001C228.359 19.0001 228.368 19.0087 228.368 19.0193C228.368 19.028 228.374 19.0356 228.382 19.0378L245.191 23.5417C247.625 24.1939 249.069 26.6957 248.417 29.1297C247.765 31.5638 245.263 33.0082 242.829 32.356L227.676 28.2958C227.254 28.1827 226.819 28.1255 226.382 28.1255L207.804 28.1253C206.62 28.1253 205.474 28.5456 204.571 29.3112L195.208 37.2474C195.206 37.2496 195.202 37.2508 195.199 37.2508C195.191 37.2508 195.185 37.2571 195.185 37.2649V53.8197C195.185 56.5811 192.946 58.8197 190.185 58.8197H186.912C184.15 58.8197 181.912 56.5811 181.912 53.8197V37.2646C181.912 37.257 181.906 37.2508 181.898 37.2508C181.894 37.2508 181.891 37.2495 181.888 37.2471L173.391 29.443C172.469 28.5956 171.262 28.1255 170.009 28.1255H150.376C149.939 28.1255 149.504 28.1827 149.082 28.2958L133.929 32.356C131.495 33.0082 128.993 31.5638 128.341 29.1298C127.689 26.6957 129.133 24.1939 131.567 23.5417L148.425 19.0246C148.476 19.011 148.528 19.0412 148.542 19.0919Z" fill="#dd0033"/>
</svg>

