<svg xmlns="http://www.w3.org/2000/svg" xmlns:xlink="http://www.w3.org/1999/xlink" version="1.1" x="0px" y="0px" viewBox="0 0 100 100" enable-background="new 0 0 100 100" xml:space="preserve"><g><path fill="#000000" d="M28.5,14h43c1.105,0,2,0.895,2,2v17.886c0,0.46-0.158,0.906-0.449,1.262L60.818,50.186   l12.226,14.855c0.295,0.358,0.456,0.807,0.456,1.271V84c0,1.105-0.895,2-2,2h-43c-1.105,0-2-0.895-2-2V66.312   c0-0.464,0.161-0.913,0.456-1.271l12.226-14.855L26.949,35.148c-0.29-0.357-0.449-0.802-0.449-1.262V16   C26.5,14.895,27.395,14,28.5,14z M68.5,19h-37v13.819l13.627,16.749c0.3,0.369,0.299,0.899-0.004,1.267L31.5,67.388V81h37V67.388   L54.877,50.835c-0.302-0.368-0.304-0.897-0.004-1.267L68.5,32.819V19z"/><path fill="#000000" d="M64,23.5v7.924L52.137,46.097c-0.524,0.648-1.303,1.021-2.137,1.021   s-1.613-0.372-2.138-1.021L36,31.424V23.5H64z"/></g></svg>
