<svg xmlns="http://www.w3.org/2000/svg" xmlns:xlink="http://www.w3.org/1999/xlink" version="1.1" x="0px" y="0px" viewBox="0 0 100 100" enable-background="new 0 0 100 100" xml:space="preserve"><g><path fill="#000000" d="M71.5,86h-43c-1.105,0-2-0.895-2-2V66.114c0-0.46,0.158-0.906,0.449-1.262l12.234-15.037   L26.956,34.959c-0.295-0.358-0.456-0.807-0.456-1.271V16c0-1.105,0.895-2,2-2h43c1.105,0,2,0.895,2,2v17.688   c0,0.464-0.161,0.913-0.456,1.271L60.818,49.814l12.234,15.037c0.29,0.357,0.449,0.802,0.449,1.262V84   C73.5,85.105,72.605,86,71.5,86z M31.5,81h37V67.181L54.873,50.432c-0.3-0.369-0.299-0.899,0.004-1.267L68.5,32.612V19h-37v13.612   l13.623,16.553c0.302,0.368,0.304,0.897,0.004,1.267L31.5,67.181V81z"/><path fill="#000000" d="M36,76.5v-7.924l11.863-14.673c0.524-0.648,1.303-1.021,2.137-1.021   s1.613,0.372,2.138,1.021L64,68.576V76.5H36z"/></g></svg>
