<svg xmlns="http://www.w3.org/2000/svg" xmlns:xlink="http://www.w3.org/1999/xlink" version="1.1" x="0px" y="0px" viewBox="0 0 100 100" enable-background="new 0 0 100 100" xml:space="preserve"><g><path fill="#000000" d="M28.5,14h43c1.105,0,2,0.895,2,2v17.886c0,0.46-0.158,0.906-0.449,1.262L60.818,50.186   l12.226,14.855c0.295,0.358,0.456,0.807,0.456,1.271V84c0,1.105-0.895,2-2,2h-43c-1.105,0-2-0.895-2-2V66.312   c0-0.464,0.161-0.913,0.456-1.271l12.226-14.855L26.949,35.148c-0.29-0.357-0.449-0.802-0.449-1.262V16   C26.5,14.895,27.395,14,28.5,14z M68.5,19h-37v13.819l13.627,16.749c0.3,0.369,0.299,0.899-0.004,1.267L31.5,67.388V81h37V67.388   L54.877,50.835c-0.302-0.368-0.304-0.897-0.004-1.267L68.5,32.819V19z"/><path fill="#000000" d="M62.683,33.053L52.226,45.987c-0.423,0.523-0.994,0.937-1.652,1.072   c-1.041,0.213-2.068-0.166-2.711-0.962L37.317,33.053c-0.529-0.654-0.063-1.629,0.778-1.629h23.811   C62.746,31.424,63.212,32.399,62.683,33.053z"/><path fill="#000000" d="M36,76.5v-5.218c0-0.423,0.266-0.799,0.663-0.942l11.99-4.285   c0.87-0.311,1.822-0.311,2.692,0l11.99,4.285C63.734,70.483,64,70.859,64,71.282V76.5H36z"/></g></svg>
