<svg xmlns="http://www.w3.org/2000/svg" xmlns:xlink="http://www.w3.org/1999/xlink" version="1.1" x="0px" y="0px" viewBox="0 0 100 100" enable-background="new 0 0 100 100" xml:space="preserve"><g><path fill="#000000" d="M36,76.301v-6.653l12.635-11.865c0.768-0.721,1.963-0.723,2.733-0.004l12.587,11.744   L64,76.301c0.001,0.11-0.088,0.199-0.198,0.199H36.199C36.089,76.5,36,76.411,36,76.301z"/><g><path fill="#000000" d="M28.5,14h43c1.105,0,2,0.895,2,2v17.886c0,0.46-0.158,0.906-0.449,1.262L60.818,50.186    l12.226,14.855c0.295,0.358,0.456,0.807,0.456,1.271V84c0,1.105-0.895,2-2,2h-43c-1.105,0-2-0.895-2-2V66.312    c0-0.464,0.161-0.913,0.456-1.271l12.226-14.855L26.949,35.148c-0.29-0.357-0.449-0.802-0.449-1.262V16    C26.5,14.895,27.395,14,28.5,14z M68.5,19h-37v13.819l13.627,16.749c0.3,0.369,0.299,0.899-0.004,1.267L31.5,67.388V81h37V67.388    L54.877,50.835c-0.302-0.368-0.304-0.897-0.004-1.267L68.5,32.819V19z"/><path fill="#000000" d="M43.66,40.899l4.112,5.086c0.423,0.523,0.994,0.938,1.653,1.073    c1.041,0.214,2.069-0.166,2.712-0.962l4.202-5.197c0.529-0.654,0.063-1.629-0.778-1.629H44.438    C43.597,39.271,43.132,40.245,43.66,40.899z"/></g></g></svg>
