<svg xmlns="http://www.w3.org/2000/svg" width="859" height="859"><path d="M446.792 858.84c81.445-4.756 148.794-25.98 214.65-67.642 41.437-26.215 80.76-62.051 110.127-100.363 46.014-60.027 76.5-135.335 85.478-211.148 2.594-21.91 2.607-77.5.022-97.069-8.204-62.1-26.83-119.331-54.225-166.617-27.847-48.065-63.449-90.035-103.018-121.446C619.066 30.445 520.077-2.763 418.51.18c-81.698 2.367-162.854 28.793-231.821 75.487-24.534 16.61-61.374 49.361-80.75 71.786-45.086 52.182-76.84 113.002-93 178.125C4.62 359.098 1.038 385.3.147 419.144c-2.254 85.573 21.458 170.616 67.661 242.67 28.51 44.463 70.682 87.805 115.805 119.02 62.277 43.083 137.376 70.906 206.613 76.549 13.75 1.12 47.457 1.988 56.566 1.456zm12.864-51.753c-30.451-18.296-88.707-55.502-87.952-56.17.187-.166 8.976-.604 19.532-.974l19.192-.673 35.354 20.648c19.445 11.356 43.495 25.226 53.444 30.822l18.09 10.174-5.463 1.296c-3.005.713-10.918 1.66-17.585 2.103-22.066 1.468-19.119 2.083-34.612-7.226zm120.756-36.793a42249.21 42249.21 0 0 0-31.375-17.15c-7.1-3.875-12.78-7.172-12.624-7.326.155-.154 9.373.058 20.483.472l20.201.752 16.162 6.062c8.89 3.333 20.127 7.833 24.974 9.998l8.812 3.937-12.852 6.657c-7.07 3.661-13.407 6.667-14.084 6.68-.677.012-9.541-4.525-19.697-10.082zm-222.005-46.423c-14.732-2.178-37.79-7.943-51.01-12.754-13.03-4.74-45.249-18.72-77.274-33.528-12.5-5.78-33.637-15.358-46.97-21.286-13.334-5.928-37.198-16.852-53.032-24.275-15.833-7.424-33.113-15.5-38.4-17.946l-9.612-4.448-4.989-10.435c-6.713-14.041-20.705-48.397-19.843-48.724.38-.144 23.63 6.075 51.666 13.82l101.482 28.032c27.779 7.673 51.976 14.224 53.772 14.558l3.266.608.27-142.458c.295-156.143-.15-144.983 6.002-150.673 1.314-1.216 15.49-7.853 31.5-14.75 16.011-6.897 31.768-13.942 35.016-15.657 6.763-3.571 9.994-3.236 13.488 1.4 2.1 2.785 3.412 14.72 9.707 88.25 8.502 99.305 9.24 112.989 10.105 187.456.449 38.702.976 70.5 1.17 70.664.194.164 5.814 1.257 12.489 2.429l12.135 2.13 110.089-1.443c60.548-.795 120.543-1.694 133.32-1.999 12.779-.305 41.931-.595 64.784-.645l41.55-.09.612-41.686c.336-22.927.85-49.938 1.14-60.024l.53-18.338-24.51.607c-25.354.63-219.617 2.454-279.985 2.63l-34.262.1-8.466-8.348-8.467-8.348 93.739-.656c100.887-.707 260.155-2.795 260.807-3.42.82-.789-12.61-93.424-21.607-149.032-7.232-44.693-19.652-109.214-22.73-118.076-5.106-14.705-14.77-26.836-28.617-35.922-16.433-10.785-28.722-14.302-54.72-15.66-27.304-1.428-95.683-3.984-106.279-3.973-8.327.008-9.423-.205-10.406-2.024-1.148-2.125-18.165-49.546-18.165-50.62 0-.34 14.284-.452 31.741-.25 30.984.357 31.81.316 34.597-1.74 7.306-5.389 8.945-15.364 3.728-22.68-5.481-7.684-9.201-8.426-53.904-10.739-58.765-3.04-101.101-3.773-114.963-1.99-9.96 1.281-13.831 3.155-31.013 15.01-12.9 8.9-14.636 10.422-14.057 12.327.364 1.195 1.087 2.623 1.607 3.173.555.587 12.099 1.258 27.917 1.624 14.835.342 38.396.968 52.36 1.39l25.387.767.632 4.614c.733 5.347 1.755 8.613 9.86 31.514 3.287 9.292 5.848 16.995 5.69 17.12-.16.125-7.562-.133-16.451-.573-8.89-.44-29.571-1.094-45.96-1.453l-29.799-.654-10.101 2.595c-5.556 1.427-14.024 4.56-18.818 6.96-14.684 7.356-227.022 139.683-288.177 179.59-7.734 5.047-14.175 9.063-14.314 8.926-.391-.388 3.225-17.32 6.089-28.512 11.269-44.042 28.924-84.43 52.823-120.835 15.946-24.292 29.078-40.218 51.2-62.094 31.558-31.207 62.218-53.254 100.68-72.398C314.04 51.354 377.06 37.507 444.772 39.193c30.344.755 53.986 3.939 80.304 10.814 101.18 26.431 185.956 88.289 237.705 173.441 29.068 47.832 47.379 100.283 55.462 158.869 1.95 14.131 2.25 20.729 2.249 49.336-.001 28.85-.295 35.173-2.324 50.035-4.442 32.544-11.13 59.392-22.061 88.562-8.07 21.537-23.243 51.226-38.617 75.563l-6.948 10.998-4.903.71c-2.697.39-47.631 1.396-99.854 2.235-179.518 2.886-216.194 3.553-228.57 4.159l-12.405.607.106 19.911.106 19.912 19.875-.057c79.111-.226 213.319-4.003 277.454-7.81 7.223-.428 13.259-.697 13.413-.597.155.1-5.264 4.89-12.043 10.645l-12.324 10.463-30.382 1.218c-45.453 1.822-112.726 3.893-183.414 5.646-34.723.861-65.632 1.725-68.688 1.919-11.225.713-40.198-.377-50.506-1.901zm-6.12-104.891c-.095-115.93-.756-134.498-7.926-222.852-6.49-79.957-6.971-85.068-8.019-85.046-.364.008-11.572 4.864-24.905 10.79l-24.243 10.777-.255 168.336c-.14 92.584-.109 168.335.07 168.335.18 0 8.705 2.97 18.943 6.599a9714.67 9714.67 0 0 0 32.505 11.453l13.89 4.854zm114.017-20.467c-6.278-2.75-12.562-8.6-15.783-14.69-3.671-6.942-3.852-18.893-.385-25.376 5.809-10.859 14.332-16.42 26.126-17.044 9.247-.49 15.796 1.59 21.982 6.985 7.09 6.183 9.886 11.658 10.457 20.477.354 5.465.033 8.568-1.223 11.827-3.609 9.363-10.745 16.135-20.281 19.248-5.362 1.75-15.17 1.08-20.893-1.427zm206.25-1.813c-6.906-3.17-12.508-8.42-15.942-14.941-3.802-7.218-3.765-17.85.087-25.235 3.276-6.28 8.338-11.487 14.113-14.515 6.239-3.27 19.567-3.242 25.984.056 13.075 6.718 20.424 21.16 17.248 33.895-4.55 18.238-24.845 28.383-41.49 20.74zM152.587 481.556l-2.28-.606.26-58.155.26-58.155 37.263-13.691 37.263-13.691-.654 41.193c-.36 22.656-.942 55.266-1.295 72.465l-.64 31.272-33.948-.013c-18.671-.008-34.974-.286-36.229-.62zm483.6-156.547c-24.166-.588-83.03-1.377-130.809-1.751l-86.87-.682-.676-10.007c-.372-5.504-.953-13.523-1.292-17.821l-.614-7.815 124.02.585c68.211.322 130.89.843 139.285 1.159l15.265.573 2.734 16.663c1.503 9.165 2.96 17.451 3.237 18.414.624 2.168-2.103 2.197-64.28.682zM473.53 253.93c-9.836-2.09-14.769-9.042-13.888-19.568.553-6.607 2.907-10.078 8.888-13.106l4.448-2.252h76.741c74.678 0 76.853.054 80.914 2.002 10.214 4.898 12.327 21.639 3.706 29.368-5.052 4.53-5.695 4.565-82.697 4.612-49.381.03-74.604-.312-78.112-1.057z"/></svg>