<svg width="377" height="377" viewBox="0 0 377 377" fill="none" xmlns="http://www.w3.org/2000/svg">
<g clip-path="url(#clip0_284_167)">
<path d="M137.5 272.5L68 342" stroke="#dd0033" stroke-width="19" stroke-linecap="round"/>
<path d="M303.002 332.5L76.0004 332.502" stroke="#dd0033" stroke-width="10" stroke-linecap="round"/>
<path d="M239.5 272.5L309 342" stroke="#dd0033" stroke-width="19" stroke-linecap="round"/>
<path d="M275 307.644L101.985 307.66" stroke="#dd0033" stroke-width="10" stroke-linecap="round"/>
<path d="M329.681 203.55L321.249 133.647C317.007 98.4844 286.95 72.0303 251.532 72.0303C212.872 72.0303 181.284 103.37 181.284 142.03V218.5C181.284 257.16 212.624 288.5 251.283 288.5H258.004C288.162 288.5 314.93 269.184 324.435 240.564L326.617 233.997C329.871 224.198 330.917 213.8 329.681 203.55Z" fill="#dd0033"/>
<path d="M311.921 278.223L324.676 239.778C325.316 237.849 325.558 235.81 325.386 233.785L317.351 139.179L314.525 85.5439C314.12 77.8657 307.975 71.7368 300.296 71.352L197.031 66.1779C188.462 65.7485 181.28 72.58 181.28 81.1591V273.499C181.28 281.783 187.996 288.499 196.28 288.499H297.684C304.148 288.499 309.885 284.358 311.921 278.223Z" fill="#dd0033"/>
<path d="M281.358 288.499L313.327 255.578L321.703 138.804L313.811 72.0293L181.279 65.3887V288.499H281.358Z" fill="#dd0033"/>
<path d="M313.82 72.2864C312.342 57.5048 300.635 47.1982 277.165 38.1428C253.694 29.0873 221.862 24 188.67 24L188.67 72.2864L313.82 72.2864Z" fill="#dd0033"/>
<path d="M47.8778 203.55L56.31 133.647C60.5516 98.4844 90.609 72.0303 126.027 72.0303C164.686 72.0303 196.275 103.37 196.275 142.03V218.5C196.275 257.16 164.935 288.5 126.275 288.5H119.555C89.3969 288.5 62.6288 269.184 53.1231 240.564L50.9421 233.997C47.6877 224.198 46.6412 213.8 47.8778 203.55Z" fill="#dd0033"/>
<path d="M65.6377 278.223L52.8822 239.778C52.2421 237.849 52.0008 235.81 52.1728 233.785L60.2075 139.179L63.0338 85.5439C63.4385 77.8657 69.5832 71.7368 77.2624 71.352L180.528 66.1779C189.096 65.7485 196.278 72.58 196.278 81.1591V273.499C196.278 281.783 189.563 288.499 181.278 288.499H79.8745C73.4104 288.499 67.6733 284.358 65.6377 278.223Z" fill="#dd0033"/>
<path d="M96.2006 288.499L64.2317 255.578L55.8555 138.804L63.7476 72.0293L196.28 65.3887V288.499H96.2006Z" fill="#dd0033"/>
<path d="M63.7383 72.2864C65.2164 57.5048 76.9237 47.1982 100.394 38.1428C123.864 29.0873 155.697 24 188.889 24L188.889 72.2864L63.7383 72.2864Z" fill="#dd0033"/>
<rect x="150" y="83" width="79" height="184" rx="5" fill="white"/>
<rect x="130" y="47" width="119" height="30" rx="7" fill="white"/>
<rect x="181" y="35" width="16" height="4" rx="2" fill="white"/>
<rect x="160" y="93" width="59" height="96" rx="9" fill="#dd0033"/>
<path d="M309.402 179.016L300.382 97.0159C299.88 92.4537 296.025 89 291.436 89H257C252.029 89 248 93.0294 248 98V180C248 184.971 252.029 189 257 189H300.456C305.816 189 309.988 184.344 309.402 179.016Z" fill="white"/>
<rect x="262" y="65" width="18" height="18" rx="3" fill="white"/>
<rect x="264" y="195" width="18" height="18" rx="3" fill="white"/>
<circle cx="273" cy="255" r="11" fill="white"/>
<path d="M69.0982 179.016L78.1182 97.0159C78.6201 92.4537 82.4746 89 87.0643 89H121.5C126.471 89 130.5 93.0294 130.5 98V180C130.5 184.971 126.471 189 121.5 189H78.0443C72.6841 189 68.5122 184.344 69.0982 179.016Z" fill="white"/>
<rect width="18" height="18" rx="3" transform="matrix(-1 0 0 1 116.5 65)" fill="white"/>
<rect width="18" height="18" rx="3" transform="matrix(-1 0 0 1 114.5 195)" fill="white"/>
<circle cx="11" cy="11" r="11" transform="matrix(-1 0 0 1 116.5 244)" fill="white"/>
</g>
<defs>
<clipPath id="clip0_284_167">
<rect width="377" height="377" fill="white"/>
</clipPath>
</defs>
</svg>

