<svg width="377" height="377" viewBox="0 0 377 377" fill="none" xmlns="http://www.w3.org/2000/svg">
<g clip-path="url(#clip0_284_130)">
<path fill-rule="evenodd" clip-rule="evenodd" d="M53.899 68.8304C54.7926 56.2779 68.0685 45.5378 93.2905 37.1305C118.404 28.7592 152.428 24.0405 187.932 24.0003V24L188.161 24.0001L188.39 24V24.0003C223.894 24.0405 257.918 28.7592 283.032 37.1305C308.253 45.5378 321.529 56.2779 322.423 68.8304H322.417L322.42 68.8305L323.132 82.3459L325.772 132.448L325.773 132.456C325.818 133.037 325.857 133.62 325.888 134.205L329.224 197.178C329.472 201.86 329.249 206.555 328.558 211.193L326.011 228.296V228.427L325.985 228.469L325.939 228.778C325.915 229.029 325.884 229.279 325.846 229.529L318.95 275.715C317.852 283.063 311.543 288.5 304.114 288.5H257.27H202.929L202.87 288.5L202.779 288.499H188.393V288.5H93.4887L93.4883 288.5H67.8991C62.9467 288.5 58.7402 284.875 58.0088 279.977L50.4207 229.162C50.3902 228.957 50.366 228.752 50.3482 228.546L50.3357 228.462L50.3109 228.428V228.296L47.7637 211.193C47.073 206.555 46.85 201.86 47.098 197.178L50.4343 134.205C50.4654 133.619 50.5037 133.034 50.5492 132.452C50.5493 132.451 50.5494 132.45 50.5495 132.448L53.422 77.9375L53.9018 68.8317L53.9371 68.8304H53.899Z" fill="#dd0033"/>
<rect x="272" y="228" width="18" height="18" rx="3" fill="white"/>
<circle cx="254.988" cy="237" r="11" fill="white"/>
<circle cx="121.988" cy="237" r="11" fill="white"/>
<rect x="87" y="228" width="18" height="18" rx="3" fill="white"/>
<path d="M308.598 85.3664C308.262 79.5471 303.445 75 297.616 75H254C247.925 75 243 79.9249 243 86V168C243 174.075 247.925 179 254 179H302.347C308.671 179 313.693 173.68 313.329 167.366L308.598 85.3664Z" fill="white"/>
<path d="M225 79C225 76.7909 223.209 75 221 75H155C152.791 75 151 76.7909 151 79V249C151 251.209 152.791 253 155 253H221C223.209 253 225 251.209 225 249V79Z" fill="white"/>
<path d="M217 94C217 87.9249 212.075 83 206 83H170C163.925 83 159 87.9249 159 94V168C159 174.075 163.925 179 170 179H206C212.075 179 217 174.075 217 168V94Z" fill="#dd0033"/>
<path d="M68.4019 85.3664C68.7377 79.5471 73.5547 75 79.3837 75H123C129.075 75 134 79.9249 134 86V168C134 174.075 129.075 179 123 179H74.6529C68.3287 179 63.3069 173.68 63.6712 167.366L68.4019 85.3664Z" fill="white"/>
<rect x="271" y="51" width="18" height="18" rx="3" fill="white"/>
<rect x="133" y="39" width="112" height="30" rx="7" fill="white"/>
<rect x="89" y="51" width="18" height="18" rx="3" fill="white"/>
<rect x="181" y="32" width="4" height="16" rx="2" transform="rotate(-90 181 32)" fill="white"/>
<path d="M137.5 273.5L68 343" stroke="#dd0033" stroke-width="19" stroke-linecap="round"/>
<path d="M303.002 333.5L76.0004 333.502" stroke="#dd0033" stroke-width="10" stroke-linecap="round"/>
<path d="M239.5 273.5L309 343" stroke="#dd0033" stroke-width="19" stroke-linecap="round"/>
<path d="M275 308.644L101.985 308.66" stroke="#dd0033" stroke-width="10" stroke-linecap="round"/>
</g>
<defs>
<clipPath id="clip0_284_130">
<rect width="377" height="377" fill="white"/>
</clipPath>
</defs>
</svg>

